<?xml version="1.0" standalone="no"?><!DOCTYPE svg PUBLIC "-//W3C//DTD SVG 1.1//EN" "http://www.w3.org/Graphics/SVG/1.1/DTD/svg11.dtd"><svg t="1605851622594" class="icon" viewBox="0 0 1024 1024" version="1.1" xmlns="http://www.w3.org/2000/svg" p-id="5660" xmlns:xlink="http://www.w3.org/1999/xlink" width="128" height="128"><defs><style type="text/css"></style></defs><path d="M787.962 439.060h-54.975v-156.625c0-96.825-78.773-175.598-175.598-175.598h-107.46c-96.825 0-175.598 78.773-175.598 175.598v156.625h-55.635c-38.195 0-69.269 31.074-69.269 69.269v361.081c0 38.195 31.074 69.269 69.269 69.269h569.267c38.195 0 69.269-31.074 69.269-69.269v-361.081c0-38.195-31.073-69.269-69.269-69.269zM354.413 282.435c0-52.667 42.849-95.515 95.515-95.515h107.461c52.667 0 95.515 42.848 95.515 95.515v156.625h-298.492v-156.625z" p-id="5661" fill="green"></path></svg>