<?xml version="1.0" standalone="no"?><!DOCTYPE svg PUBLIC "-//W3C//DTD SVG 1.1//EN" "http://www.w3.org/Graphics/SVG/1.1/DTD/svg11.dtd"><svg t="1605850867088" class="icon" viewBox="0 0 1024 1024" version="1.1" xmlns="http://www.w3.org/2000/svg" p-id="5519" xmlns:xlink="http://www.w3.org/1999/xlink" width="128" height="128"><defs><style type="text/css"></style></defs><path d="M779.776 387.264l-57.92 0L721.856 274.56c0-115.712-94.208-209.792-209.792-209.792-115.584 0-209.664 94.08-209.664 209.792l0 112.704L244.352 387.264c-28.288 0-51.264 22.976-51.264 51.2l0 469.632c0 28.224 22.912 51.136 51.264 51.136l535.36 0c28.224 0 51.136-22.848 51.136-51.136L830.848 438.464C830.848 410.24 808 387.264 779.776 387.264zM355.904 274.56c0-86.08 70.016-156.096 156.096-156.096s156.16 70.016 156.16 156.096l0 112.704-312.32 0L355.84 274.56z" p-id="5520"></path></svg>